<svg xmlns="http://www.w3.org/2000/svg" xmlns:xlink="http://www.w3.org/1999/xlink" width="500" zoomAndPan="magnify" viewBox="0 0 375 374.999991" height="500" preserveAspectRatio="xMidYMid meet" version="1.2"><defs><clipPath id="01f931c820"><path d="M 67.46875 75.789062 L 307.46875 75.789062 L 307.46875 315.789062 L 67.46875 315.789062 Z M 67.46875 75.789062 "/></clipPath><clipPath id="afe2935b91"><path d="M 67.46875 150.789062 L 67.46875 240.851562 C 67.46875 282.273438 101.046875 315.851562 142.46875 315.851562 L 232.53125 315.851562 C 273.953125 315.851562 307.53125 282.273438 307.53125 240.851562 L 307.53125 150.789062 C 307.53125 109.367188 273.953125 75.789062 232.53125 75.789062 L 142.46875 75.789062 C 101.046875 75.789062 67.46875 109.367188 67.46875 150.789062 Z M 67.46875 150.789062 "/></clipPath><clipPath id="e75ba1b9c9"><path d="M 109 117 L 266 117 L 266 274 L 109 274 Z M 109 117 "/></clipPath><clipPath id="5fbcc5c6dd"><path d="M 67.46875 150.789062 L 67.46875 240.851562 C 67.46875 282.273438 101.046875 315.851562 142.46875 315.851562 L 232.53125 315.851562 C 273.953125 315.851562 307.53125 282.273438 307.53125 240.851562 L 307.53125 150.789062 C 307.53125 109.367188 273.953125 75.789062 232.53125 75.789062 L 142.46875 75.789062 C 101.046875 75.789062 67.46875 109.367188 67.46875 150.789062 Z M 67.46875 150.789062 "/></clipPath></defs><g id="1f0eea7ad5"><g clip-rule="nonzero" clip-path="url(#01f931c820)"><g clip-rule="nonzero" clip-path="url(#afe2935b91)"><path style=" stroke:none;fill-rule:nonzero;fill:#3963a4;fill-opacity:1;" d="M 67.46875 195.789062 C 67.46875 193.824219 67.515625 191.863281 67.613281 189.902344 C 67.710938 187.941406 67.855469 185.980469 68.046875 184.027344 C 68.238281 182.074219 68.480469 180.125 68.769531 178.183594 C 69.054688 176.238281 69.390625 174.304688 69.773438 172.378906 C 70.15625 170.453125 70.589844 168.535156 71.066406 166.632812 C 71.542969 164.726562 72.066406 162.835938 72.636719 160.957031 C 73.207031 159.074219 73.820312 157.210938 74.484375 155.363281 C 75.144531 153.511719 75.851562 151.683594 76.601562 149.867188 C 77.355469 148.054688 78.152344 146.257812 78.988281 144.484375 C 79.828125 142.707031 80.710938 140.953125 81.636719 139.222656 C 82.5625 137.488281 83.53125 135.78125 84.542969 134.097656 C 85.550781 132.414062 86.601562 130.753906 87.691406 129.121094 C 88.785156 127.488281 89.914062 125.882812 91.085938 124.304688 C 92.253906 122.726562 93.460938 121.179688 94.707031 119.660156 C 95.953125 118.144531 97.234375 116.65625 98.554688 115.203125 C 99.875 113.746094 101.226562 112.324219 102.617188 110.9375 C 104.003906 109.546875 105.425781 108.195312 106.882812 106.875 C 108.335938 105.554688 109.824219 104.273438 111.339844 103.027344 C 112.859375 101.78125 114.40625 100.574219 115.984375 99.40625 C 117.5625 98.234375 119.167969 97.105469 120.800781 96.011719 C 122.433594 94.921875 124.09375 93.871094 125.777344 92.863281 C 127.460938 91.851562 129.167969 90.882812 130.902344 89.957031 C 132.632812 89.03125 134.386719 88.148438 136.164062 87.3125 C 137.9375 86.472656 139.734375 85.675781 141.546875 84.921875 C 143.363281 84.171875 145.191406 83.464844 147.042969 82.804688 C 148.890625 82.140625 150.753906 81.527344 152.636719 80.957031 C 154.515625 80.386719 156.40625 79.863281 158.3125 79.386719 C 160.214844 78.910156 162.132812 78.476562 164.058594 78.09375 C 165.984375 77.710938 167.917969 77.375 169.859375 77.089844 C 171.804688 76.800781 173.753906 76.558594 175.707031 76.367188 C 177.660156 76.175781 179.621094 76.03125 181.582031 75.933594 C 183.542969 75.835938 185.503906 75.789062 187.46875 75.789062 C 189.433594 75.789062 191.394531 75.835938 193.355469 75.933594 C 195.320312 76.03125 197.277344 76.175781 199.230469 76.367188 C 201.183594 76.558594 203.132812 76.800781 205.078125 77.089844 C 207.019531 77.375 208.953125 77.710938 210.878906 78.09375 C 212.804688 78.476562 214.722656 78.910156 216.625 79.386719 C 218.53125 79.863281 220.421875 80.386719 222.304688 80.957031 C 224.183594 81.527344 226.046875 82.140625 227.894531 82.804688 C 229.746094 83.464844 231.578125 84.171875 233.390625 84.921875 C 235.207031 85.675781 237 86.472656 238.777344 87.3125 C 240.550781 88.148438 242.304688 89.03125 244.035156 89.957031 C 245.769531 90.882812 247.476562 91.851562 249.160156 92.863281 C 250.847656 93.871094 252.503906 94.921875 254.136719 96.011719 C 255.769531 97.105469 257.375 98.234375 258.953125 99.40625 C 260.53125 100.574219 262.078125 101.78125 263.597656 103.027344 C 265.113281 104.273438 266.601562 105.554688 268.054688 106.875 C 269.511719 108.195312 270.933594 109.546875 272.320312 110.9375 C 273.710938 112.324219 275.0625 113.746094 276.382812 115.203125 C 277.703125 116.65625 278.984375 118.144531 280.230469 119.660156 C 281.476562 121.179688 282.683594 122.726562 283.855469 124.304688 C 285.023438 125.882812 286.152344 127.488281 287.246094 129.121094 C 288.335938 130.753906 289.386719 132.414062 290.394531 134.097656 C 291.40625 135.78125 292.375 137.488281 293.300781 139.222656 C 294.226562 140.953125 295.109375 142.707031 295.949219 144.484375 C 296.789062 146.257812 297.582031 148.054688 298.335938 149.867188 C 299.085938 151.683594 299.792969 153.511719 300.453125 155.363281 C 301.117188 157.210938 301.730469 159.074219 302.300781 160.957031 C 302.871094 162.835938 303.394531 164.726562 303.871094 166.632812 C 304.351562 168.535156 304.78125 170.453125 305.164062 172.378906 C 305.546875 174.304688 305.882812 176.238281 306.171875 178.183594 C 306.457031 180.125 306.699219 182.074219 306.890625 184.027344 C 307.082031 185.980469 307.226562 187.941406 307.324219 189.902344 C 307.421875 191.863281 307.46875 193.824219 307.46875 195.789062 C 307.46875 197.753906 307.421875 199.714844 307.324219 201.675781 C 307.226562 203.640625 307.082031 205.597656 306.890625 207.550781 C 306.699219 209.503906 306.457031 211.453125 306.171875 213.398438 C 305.882812 215.339844 305.546875 217.273438 305.164062 219.199219 C 304.78125 221.125 304.351562 223.042969 303.871094 224.945312 C 303.394531 226.851562 302.871094 228.746094 302.300781 230.625 C 301.730469 232.503906 301.117188 234.367188 300.453125 236.214844 C 299.792969 238.066406 299.085938 239.898438 298.335938 241.710938 C 297.582031 243.527344 296.789062 245.320312 295.949219 247.097656 C 295.109375 248.871094 294.226562 250.625 293.300781 252.355469 C 292.375 254.089844 291.40625 255.796875 290.394531 257.480469 C 289.386719 259.167969 288.335938 260.824219 287.246094 262.457031 C 286.152344 264.089844 285.023438 265.695312 283.855469 267.273438 C 282.683594 268.851562 281.476562 270.398438 280.230469 271.917969 C 278.984375 273.433594 277.703125 274.921875 276.382812 276.375 C 275.0625 277.832031 273.710938 279.253906 272.320312 280.640625 C 270.933594 282.03125 269.511719 283.382812 268.054688 284.703125 C 266.601562 286.023438 265.113281 287.304688 263.597656 288.550781 C 262.078125 289.796875 260.53125 291.003906 258.953125 292.175781 C 257.375 293.34375 255.769531 294.472656 254.136719 295.566406 C 252.503906 296.65625 250.847656 297.707031 249.160156 298.714844 C 247.476562 299.726562 245.769531 300.695312 244.035156 301.621094 C 242.304688 302.546875 240.550781 303.429688 238.777344 304.269531 C 237 305.109375 235.207031 305.902344 233.390625 306.65625 C 231.578125 307.40625 229.746094 308.113281 227.894531 308.773438 C 226.046875 309.4375 224.183594 310.050781 222.304688 310.621094 C 220.421875 311.191406 218.53125 311.714844 216.625 312.191406 C 214.722656 312.671875 212.804688 313.101562 210.878906 313.484375 C 208.953125 313.867188 207.019531 314.203125 205.078125 314.492188 C 203.132812 314.777344 201.183594 315.019531 199.230469 315.210938 C 197.277344 315.402344 195.320312 315.546875 193.355469 315.644531 C 191.394531 315.742188 189.433594 315.789062 187.46875 315.789062 C 185.503906 315.789062 183.542969 315.742188 181.582031 315.644531 C 179.621094 315.546875 177.660156 315.402344 175.707031 315.210938 C 173.753906 315.019531 171.804688 314.777344 169.859375 314.492188 C 167.917969 314.203125 165.984375 313.867188 164.058594 313.484375 C 162.132812 313.101562 160.214844 312.671875 158.3125 312.191406 C 156.40625 311.714844 154.515625 311.191406 152.636719 310.621094 C 150.753906 310.050781 148.890625 309.4375 147.042969 308.773438 C 145.191406 308.113281 143.363281 307.40625 141.546875 306.65625 C 139.734375 305.902344 137.9375 305.109375 136.164062 304.269531 C 134.386719 303.429688 132.632812 302.546875 130.902344 301.621094 C 129.167969 300.695312 127.460938 299.726562 125.777344 298.714844 C 124.09375 297.707031 122.433594 296.65625 120.800781 295.566406 C 119.167969 294.472656 117.5625 293.34375 115.984375 292.175781 C 114.40625 291.003906 112.859375 289.796875 111.339844 288.550781 C 109.824219 287.304688 108.335938 286.023438 106.882812 284.703125 C 105.425781 283.382812 104.003906 282.03125 102.617188 280.640625 C 101.226562 279.253906 99.875 277.832031 98.554688 276.375 C 97.234375 274.921875 95.953125 273.433594 94.707031 271.917969 C 93.460938 270.398438 92.253906 268.851562 91.085938 267.273438 C 89.914062 265.695312 88.785156 264.089844 87.691406 262.457031 C 86.601562 260.824219 85.550781 259.167969 84.542969 257.480469 C 83.53125 255.796875 82.5625 254.089844 81.636719 252.355469 C 80.710938 250.625 79.828125 248.871094 78.988281 247.097656 C 78.152344 245.320312 77.355469 243.527344 76.601562 241.710938 C 75.851562 239.898438 75.144531 238.066406 74.484375 236.214844 C 73.820312 234.367188 73.207031 232.503906 72.636719 230.625 C 72.066406 228.746094 71.542969 226.851562 71.066406 224.945312 C 70.589844 223.042969 70.15625 221.125 69.773438 219.199219 C 69.390625 217.273438 69.054688 215.339844 68.769531 213.398438 C 68.480469 211.453125 68.238281 209.503906 68.046875 207.550781 C 67.855469 205.597656 67.710938 203.640625 67.613281 201.675781 C 67.515625 199.714844 67.46875 197.753906 67.46875 195.789062 Z M 67.46875 195.789062 "/></g></g><g clip-rule="nonzero" clip-path="url(#e75ba1b9c9)"><g clip-rule="nonzero" clip-path="url(#5fbcc5c6dd)"><path style=" stroke:none;fill-rule:evenodd;fill:#ffffff;fill-opacity:1;" d="M 109.230469 197.953125 C 109.632812 212.746094 114.144531 226.511719 121.664062 238.152344 C 122.378906 239.265625 123.125 240.355469 123.898438 241.429688 C 138.089844 261.136719 161.238281 273.96875 187.378906 273.96875 C 213.515625 273.96875 236.660156 261.140625 250.851562 241.4375 C 251.585938 240.417969 252.296875 239.378906 252.984375 238.320312 C 253.023438 238.265625 253.058594 238.210938 253.09375 238.152344 C 260.980469 225.945312 265.558594 211.402344 265.558594 195.789062 C 265.558594 153.335938 231.71875 118.785156 189.542969 117.640625 L 189.542969 117.609375 L 185.132812 117.609375 L 185.132812 117.640625 C 161.101562 118.320312 139.777344 129.84375 125.894531 147.496094 C 125.078125 148.535156 124.285156 149.597656 123.519531 150.679688 C 114.902344 162.855469 109.679688 177.601562 109.230469 193.542969 L 109.199219 193.542969 L 109.199219 197.953125 Z M 185.132812 224.066406 L 185.132812 269.394531 C 177.484375 268.285156 169.691406 261.527344 163.40625 249.082031 C 160.300781 242.925781 157.710938 235.628906 155.816406 227.496094 C 164.738281 225.4375 174.648438 224.21875 185.132812 224.066406 Z M 189.542969 269.40625 L 189.542969 224.0625 C 200.0625 224.210938 209.996094 225.433594 218.941406 227.496094 C 217.046875 235.628906 214.457031 242.925781 211.351562 249.082031 C 205.046875 261.570312 197.21875 268.332031 189.542969 269.40625 Z M 189.542969 197.953125 L 189.542969 220.089844 C 200.304688 220.238281 210.527344 221.480469 219.78125 223.613281 C 221.363281 215.675781 222.292969 207.035156 222.421875 197.953125 Z M 185.132812 197.953125 L 185.132812 220.089844 C 174.398438 220.242188 164.207031 221.488281 154.976562 223.613281 C 153.394531 215.675781 152.464844 207.035156 152.335938 197.953125 Z M 189.542969 193.542969 L 222.417969 193.542969 C 222.265625 182.96875 221.019531 172.992188 218.929688 164.027344 C 209.902344 166.039062 199.976562 167.214844 189.542969 167.355469 Z M 226.832031 197.953125 C 226.703125 207.371094 225.730469 216.375 224.0625 224.679688 C 234.023438 227.355469 242.699219 231.089844 249.507812 235.582031 C 256.511719 224.667969 260.71875 211.789062 261.117188 197.953125 Z M 261.113281 193.542969 L 226.828125 193.542969 C 226.675781 182.65625 225.394531 172.324219 223.214844 162.992188 C 232.59375 160.542969 240.863281 157.167969 247.550781 153.101562 C 255.707031 164.582031 260.664062 178.496094 261.113281 193.542969 Z M 185.132812 193.542969 L 152.335938 193.542969 C 152.492188 182.96875 153.738281 172.992188 155.828125 164.027344 C 164.832031 166.035156 174.730469 167.207031 185.132812 167.355469 Z M 147.929688 193.542969 C 148.082031 182.65625 149.363281 172.324219 151.542969 162.992188 C 142.164062 160.542969 133.894531 157.167969 127.207031 153.101562 C 119.046875 164.582031 114.09375 178.496094 113.644531 193.542969 Z M 113.640625 197.953125 C 114.039062 211.789062 118.246094 224.667969 125.25 235.582031 C 132.058594 231.089844 140.734375 227.355469 150.695312 224.679688 C 149.027344 216.375 148.054688 207.371094 147.925781 197.953125 Z M 185.132812 122.183594 L 185.132812 163.378906 C 175.03125 163.234375 165.464844 162.09375 156.796875 160.167969 C 158.570312 153.597656 160.808594 147.648438 163.40625 142.496094 C 169.691406 130.054688 177.484375 123.292969 185.132812 122.183594 Z M 189.542969 163.382812 L 189.542969 122.171875 C 197.21875 123.246094 205.046875 130.011719 211.351562 142.496094 C 213.949219 147.648438 216.1875 153.597656 217.960938 160.167969 C 209.269531 162.097656 199.675781 163.238281 189.542969 163.382812 Z M 223.21875 228.566406 C 219.074219 246.316406 211.671875 260.464844 202.527344 268 C 220.863281 264.175781 236.699219 253.542969 247.273438 238.863281 C 245.332031 237.585938 243.199219 236.355469 240.867188 235.179688 C 235.714844 232.582031 229.773438 230.34375 223.21875 228.566406 Z M 127.484375 238.863281 C 138.058594 253.542969 153.894531 264.175781 172.230469 268 C 163.085938 260.464844 155.683594 246.316406 151.539062 228.566406 C 144.984375 230.34375 139.039062 232.582031 133.890625 235.179688 C 131.558594 236.355469 129.425781 237.585938 127.484375 238.863281 Z M 240.867188 152.265625 C 242.375 151.503906 243.804688 150.71875 245.148438 149.914062 C 234.632812 136.6875 219.671875 127.15625 202.527344 123.578125 C 210.996094 130.554688 217.972656 143.207031 222.246094 159.136719 C 229.1875 157.324219 235.460938 154.992188 240.867188 152.265625 Z M 172.230469 123.578125 C 163.761719 130.554688 156.785156 143.207031 152.507812 159.136719 C 145.570312 157.324219 139.292969 154.992188 133.890625 152.265625 C 132.378906 151.503906 130.953125 150.71875 129.605469 149.914062 C 140.121094 136.6875 155.082031 127.15625 172.230469 123.578125 Z M 172.230469 123.578125 "/></g></g><g style="fill:#000000;fill-opacity:1;"><g transform="translate(111.399821, 282.799228)"><path style="stroke:none" d="M 4.59375 -11.46875 C 6.09375 -11.46875 7.1875 -11.171875 7.875 -10.578125 C 8.5625 -9.992188 8.90625 -9.164062 8.90625 -8.09375 C 8.90625 -7.457031 8.757812 -6.863281 8.46875 -6.3125 C 8.1875 -5.769531 7.710938 -5.328125 7.046875 -4.984375 C 6.378906 -4.640625 5.472656 -4.46875 4.328125 -4.46875 L 3 -4.46875 L 3 0 L 1.5625 0 L 1.5625 -11.46875 Z M 4.46875 -10.234375 L 3 -10.234375 L 3 -5.703125 L 4.15625 -5.703125 C 5.25 -5.703125 6.0625 -5.878906 6.59375 -6.234375 C 7.132812 -6.585938 7.40625 -7.1875 7.40625 -8.03125 C 7.40625 -8.769531 7.164062 -9.320312 6.6875 -9.6875 C 6.207031 -10.050781 5.46875 -10.234375 4.46875 -10.234375 Z M 4.46875 -10.234375 "/></g></g><g style="fill:#000000;fill-opacity:1;"><g transform="translate(122.267152, 282.799228)"><path style="stroke:none" d="M 4.6875 -8.765625 C 5.414062 -8.765625 6.046875 -8.601562 6.578125 -8.28125 C 7.117188 -7.96875 7.53125 -7.519531 7.8125 -6.9375 C 8.09375 -6.351562 8.234375 -5.671875 8.234375 -4.890625 L 8.234375 -4.03125 L 2.34375 -4.03125 C 2.363281 -3.050781 2.613281 -2.304688 3.09375 -1.796875 C 3.570312 -1.296875 4.238281 -1.046875 5.09375 -1.046875 C 5.632812 -1.046875 6.117188 -1.09375 6.546875 -1.1875 C 6.972656 -1.289062 7.410156 -1.441406 7.859375 -1.640625 L 7.859375 -0.40625 C 7.421875 -0.207031 6.984375 -0.0664062 6.546875 0.015625 C 6.117188 0.109375 5.613281 0.15625 5.03125 0.15625 C 4.207031 0.15625 3.484375 -0.00390625 2.859375 -0.328125 C 2.234375 -0.660156 1.75 -1.15625 1.40625 -1.8125 C 1.0625 -2.46875 0.890625 -3.273438 0.890625 -4.234375 C 0.890625 -5.179688 1.046875 -5.988281 1.359375 -6.65625 C 1.671875 -7.332031 2.113281 -7.851562 2.6875 -8.21875 C 3.257812 -8.582031 3.925781 -8.765625 4.6875 -8.765625 Z M 4.671875 -7.609375 C 3.992188 -7.609375 3.457031 -7.390625 3.0625 -6.953125 C 2.675781 -6.523438 2.445312 -5.925781 2.375 -5.15625 L 6.765625 -5.15625 C 6.753906 -5.882812 6.582031 -6.472656 6.25 -6.921875 C 5.914062 -7.378906 5.390625 -7.609375 4.671875 -7.609375 Z M 4.671875 -7.609375 "/></g></g><g style="fill:#000000;fill-opacity:1;"><g transform="translate(132.476385, 282.799228)"><path style="stroke:none" d="M 5.375 -8.765625 C 5.539062 -8.765625 5.710938 -8.753906 5.890625 -8.734375 C 6.078125 -8.722656 6.242188 -8.703125 6.390625 -8.671875 L 6.21875 -7.375 C 6.070312 -7.40625 5.914062 -7.429688 5.75 -7.453125 C 5.582031 -7.472656 5.425781 -7.484375 5.28125 -7.484375 C 4.84375 -7.484375 4.429688 -7.363281 4.046875 -7.125 C 3.660156 -6.882812 3.351562 -6.546875 3.125 -6.109375 C 2.894531 -5.679688 2.78125 -5.175781 2.78125 -4.59375 L 2.78125 0 L 1.359375 0 L 1.359375 -8.609375 L 2.515625 -8.609375 L 2.6875 -7.03125 L 2.75 -7.03125 C 3.007812 -7.5 3.363281 -7.90625 3.8125 -8.25 C 4.257812 -8.59375 4.78125 -8.765625 5.375 -8.765625 Z M 5.375 -8.765625 "/></g></g><g style="fill:#000000;fill-opacity:1;"><g transform="translate(140.261906, 282.799228)"><path style="stroke:none" d="M 6.96875 -2.375 C 6.96875 -1.539062 6.65625 -0.910156 6.03125 -0.484375 C 5.414062 -0.0546875 4.582031 0.15625 3.53125 0.15625 C 2.9375 0.15625 2.421875 0.109375 1.984375 0.015625 C 1.546875 -0.078125 1.160156 -0.210938 0.828125 -0.390625 L 0.828125 -1.671875 C 1.171875 -1.492188 1.585938 -1.332031 2.078125 -1.1875 C 2.566406 -1.050781 3.0625 -0.984375 3.5625 -0.984375 C 4.28125 -0.984375 4.800781 -1.097656 5.125 -1.328125 C 5.445312 -1.554688 5.609375 -1.863281 5.609375 -2.25 C 5.609375 -2.457031 5.546875 -2.644531 5.421875 -2.8125 C 5.304688 -2.988281 5.097656 -3.160156 4.796875 -3.328125 C 4.492188 -3.503906 4.054688 -3.703125 3.484375 -3.921875 C 2.929688 -4.128906 2.457031 -4.34375 2.0625 -4.5625 C 1.664062 -4.78125 1.359375 -5.035156 1.140625 -5.328125 C 0.921875 -5.628906 0.8125 -6.015625 0.8125 -6.484375 C 0.8125 -7.210938 1.109375 -7.773438 1.703125 -8.171875 C 2.304688 -8.566406 3.085938 -8.765625 4.046875 -8.765625 C 4.566406 -8.765625 5.054688 -8.710938 5.515625 -8.609375 C 5.972656 -8.503906 6.398438 -8.363281 6.796875 -8.1875 L 6.3125 -7.0625 C 5.945312 -7.21875 5.566406 -7.347656 5.171875 -7.453125 C 4.773438 -7.554688 4.367188 -7.609375 3.953125 -7.609375 C 3.367188 -7.609375 2.925781 -7.515625 2.625 -7.328125 C 2.320312 -7.140625 2.171875 -6.882812 2.171875 -6.5625 C 2.171875 -6.320312 2.238281 -6.117188 2.375 -5.953125 C 2.519531 -5.796875 2.753906 -5.632812 3.078125 -5.46875 C 3.398438 -5.3125 3.835938 -5.132812 4.390625 -4.9375 C 4.929688 -4.726562 5.394531 -4.515625 5.78125 -4.296875 C 6.164062 -4.085938 6.457031 -3.828125 6.65625 -3.515625 C 6.863281 -3.210938 6.96875 -2.832031 6.96875 -2.375 Z M 6.96875 -2.375 "/></g></g><g style="fill:#000000;fill-opacity:1;"><g transform="translate(149.106801, 282.799228)"><path style="stroke:none" d="M 8.84375 -4.328125 C 8.84375 -2.898438 8.484375 -1.796875 7.765625 -1.015625 C 7.046875 -0.234375 6.066406 0.15625 4.828125 0.15625 C 4.066406 0.15625 3.390625 -0.015625 2.796875 -0.359375 C 2.203125 -0.710938 1.734375 -1.222656 1.390625 -1.890625 C 1.054688 -2.554688 0.890625 -3.367188 0.890625 -4.328125 C 0.890625 -5.742188 1.242188 -6.835938 1.953125 -7.609375 C 2.660156 -8.378906 3.640625 -8.765625 4.890625 -8.765625 C 5.660156 -8.765625 6.34375 -8.585938 6.9375 -8.234375 C 7.539062 -7.890625 8.007812 -7.390625 8.34375 -6.734375 C 8.675781 -6.078125 8.84375 -5.273438 8.84375 -4.328125 Z M 2.34375 -4.328125 C 2.34375 -3.304688 2.539062 -2.5 2.9375 -1.90625 C 3.34375 -1.3125 3.984375 -1.015625 4.859375 -1.015625 C 5.734375 -1.015625 6.375 -1.3125 6.78125 -1.90625 C 7.1875 -2.5 7.390625 -3.304688 7.390625 -4.328125 C 7.390625 -5.335938 7.1875 -6.128906 6.78125 -6.703125 C 6.375 -7.285156 5.726562 -7.578125 4.84375 -7.578125 C 3.96875 -7.578125 3.332031 -7.285156 2.9375 -6.703125 C 2.539062 -6.128906 2.34375 -5.335938 2.34375 -4.328125 Z M 2.34375 -4.328125 "/></g></g><g style="fill:#000000;fill-opacity:1;"><g transform="translate(159.974132, 282.799228)"><path style="stroke:none" d="M 5.515625 -8.765625 C 6.535156 -8.765625 7.304688 -8.515625 7.828125 -8.015625 C 8.359375 -7.515625 8.625 -6.710938 8.625 -5.609375 L 8.625 0 L 7.234375 0 L 7.234375 -5.515625 C 7.234375 -6.890625 6.585938 -7.578125 5.296875 -7.578125 C 4.347656 -7.578125 3.691406 -7.304688 3.328125 -6.765625 C 2.960938 -6.234375 2.78125 -5.46875 2.78125 -4.46875 L 2.78125 0 L 1.359375 0 L 1.359375 -8.609375 L 2.5 -8.609375 L 2.71875 -7.4375 L 2.796875 -7.4375 C 3.078125 -7.882812 3.460938 -8.21875 3.953125 -8.4375 C 4.441406 -8.65625 4.960938 -8.765625 5.515625 -8.765625 Z M 5.515625 -8.765625 "/></g></g><g style="fill:#000000;fill-opacity:1;"><g transform="translate(171.050127, 282.799228)"><path style="stroke:none" d="M 4.625 -8.75 C 5.675781 -8.75 6.453125 -8.519531 6.953125 -8.0625 C 7.453125 -7.601562 7.703125 -6.867188 7.703125 -5.859375 L 7.703125 0 L 6.6875 0 L 6.40625 -1.21875 L 6.34375 -1.21875 C 5.96875 -0.75 5.570312 -0.398438 5.15625 -0.171875 C 4.738281 0.046875 4.171875 0.15625 3.453125 0.15625 C 2.671875 0.15625 2.019531 -0.046875 1.5 -0.453125 C 0.988281 -0.867188 0.734375 -1.515625 0.734375 -2.390625 C 0.734375 -3.242188 1.070312 -3.90625 1.75 -4.375 C 2.425781 -4.84375 3.460938 -5.097656 4.859375 -5.140625 L 6.328125 -5.1875 L 6.328125 -5.703125 C 6.328125 -6.421875 6.171875 -6.914062 5.859375 -7.1875 C 5.546875 -7.46875 5.109375 -7.609375 4.546875 -7.609375 C 4.097656 -7.609375 3.671875 -7.539062 3.265625 -7.40625 C 2.859375 -7.28125 2.476562 -7.128906 2.125 -6.953125 L 1.6875 -8.015625 C 2.0625 -8.222656 2.503906 -8.394531 3.015625 -8.53125 C 3.535156 -8.675781 4.070312 -8.75 4.625 -8.75 Z M 6.3125 -4.203125 L 5.046875 -4.15625 C 3.972656 -4.113281 3.226562 -3.941406 2.8125 -3.640625 C 2.40625 -3.347656 2.203125 -2.925781 2.203125 -2.375 C 2.203125 -1.894531 2.347656 -1.539062 2.640625 -1.3125 C 2.929688 -1.09375 3.3125 -0.984375 3.78125 -0.984375 C 4.488281 -0.984375 5.085938 -1.179688 5.578125 -1.578125 C 6.066406 -1.984375 6.3125 -2.601562 6.3125 -3.4375 Z M 6.3125 -4.203125 "/></g></g><g style="fill:#000000;fill-opacity:1;"><g transform="translate(181.211204, 282.799228)"><path style="stroke:none" d="M 2.78125 0 L 1.359375 0 L 1.359375 -12.203125 L 2.78125 -12.203125 Z M 2.78125 0 "/></g></g><g style="fill:#000000;fill-opacity:1;"><g transform="translate(186.508804, 282.799228)"><path style="stroke:none" d=""/></g></g><g style="fill:#000000;fill-opacity:1;"><g transform="translate(189.270327, 282.799228)"><path style="stroke:none" d="M 4.59375 -11.46875 C 6.09375 -11.46875 7.1875 -11.171875 7.875 -10.578125 C 8.5625 -9.992188 8.90625 -9.164062 8.90625 -8.09375 C 8.90625 -7.457031 8.757812 -6.863281 8.46875 -6.3125 C 8.1875 -5.769531 7.710938 -5.328125 7.046875 -4.984375 C 6.378906 -4.640625 5.472656 -4.46875 4.328125 -4.46875 L 3 -4.46875 L 3 0 L 1.5625 0 L 1.5625 -11.46875 Z M 4.46875 -10.234375 L 3 -10.234375 L 3 -5.703125 L 4.15625 -5.703125 C 5.25 -5.703125 6.0625 -5.878906 6.59375 -6.234375 C 7.132812 -6.585938 7.40625 -7.1875 7.40625 -8.03125 C 7.40625 -8.769531 7.164062 -9.320312 6.6875 -9.6875 C 6.207031 -10.050781 5.46875 -10.234375 4.46875 -10.234375 Z M 4.46875 -10.234375 "/></g></g><g style="fill:#000000;fill-opacity:1;"><g transform="translate(200.137658, 282.799228)"><path style="stroke:none" d="M 8.84375 -4.328125 C 8.84375 -2.898438 8.484375 -1.796875 7.765625 -1.015625 C 7.046875 -0.234375 6.066406 0.15625 4.828125 0.15625 C 4.066406 0.15625 3.390625 -0.015625 2.796875 -0.359375 C 2.203125 -0.710938 1.734375 -1.222656 1.390625 -1.890625 C 1.054688 -2.554688 0.890625 -3.367188 0.890625 -4.328125 C 0.890625 -5.742188 1.242188 -6.835938 1.953125 -7.609375 C 2.660156 -8.378906 3.640625 -8.765625 4.890625 -8.765625 C 5.660156 -8.765625 6.34375 -8.585938 6.9375 -8.234375 C 7.539062 -7.890625 8.007812 -7.390625 8.34375 -6.734375 C 8.675781 -6.078125 8.84375 -5.273438 8.84375 -4.328125 Z M 2.34375 -4.328125 C 2.34375 -3.304688 2.539062 -2.5 2.9375 -1.90625 C 3.34375 -1.3125 3.984375 -1.015625 4.859375 -1.015625 C 5.734375 -1.015625 6.375 -1.3125 6.78125 -1.90625 C 7.1875 -2.5 7.390625 -3.304688 7.390625 -4.328125 C 7.390625 -5.335938 7.1875 -6.128906 6.78125 -6.703125 C 6.375 -7.285156 5.726562 -7.578125 4.84375 -7.578125 C 3.96875 -7.578125 3.332031 -7.285156 2.9375 -6.703125 C 2.539062 -6.128906 2.34375 -5.335938 2.34375 -4.328125 Z M 2.34375 -4.328125 "/></g></g><g style="fill:#000000;fill-opacity:1;"><g transform="translate(211.004988, 282.799228)"><path style="stroke:none" d="M 5.375 -8.765625 C 5.539062 -8.765625 5.710938 -8.753906 5.890625 -8.734375 C 6.078125 -8.722656 6.242188 -8.703125 6.390625 -8.671875 L 6.21875 -7.375 C 6.070312 -7.40625 5.914062 -7.429688 5.75 -7.453125 C 5.582031 -7.472656 5.425781 -7.484375 5.28125 -7.484375 C 4.84375 -7.484375 4.429688 -7.363281 4.046875 -7.125 C 3.660156 -6.882812 3.351562 -6.546875 3.125 -6.109375 C 2.894531 -5.679688 2.78125 -5.175781 2.78125 -4.59375 L 2.78125 0 L 1.359375 0 L 1.359375 -8.609375 L 2.515625 -8.609375 L 2.6875 -7.03125 L 2.75 -7.03125 C 3.007812 -7.5 3.363281 -7.90625 3.8125 -8.25 C 4.257812 -8.59375 4.78125 -8.765625 5.375 -8.765625 Z M 5.375 -8.765625 "/></g></g><g style="fill:#000000;fill-opacity:1;"><g transform="translate(218.790509, 282.799228)"><path style="stroke:none" d="M 4.234375 -1 C 4.453125 -1 4.671875 -1.015625 4.890625 -1.046875 C 5.117188 -1.078125 5.300781 -1.117188 5.4375 -1.171875 L 5.4375 -0.09375 C 5.289062 -0.0195312 5.078125 0.0351562 4.796875 0.078125 C 4.523438 0.128906 4.257812 0.15625 4 0.15625 C 3.550781 0.15625 3.132812 0.078125 2.75 -0.078125 C 2.375 -0.234375 2.066406 -0.503906 1.828125 -0.890625 C 1.597656 -1.273438 1.484375 -1.8125 1.484375 -2.5 L 1.484375 -7.515625 L 0.25 -7.515625 L 0.25 -8.1875 L 1.5 -8.75 L 2.0625 -10.578125 L 2.890625 -10.578125 L 2.890625 -8.609375 L 5.375 -8.609375 L 5.375 -7.515625 L 2.890625 -7.515625 L 2.890625 -2.53125 C 2.890625 -2.007812 3.015625 -1.625 3.265625 -1.375 C 3.515625 -1.125 3.835938 -1 4.234375 -1 Z M 4.234375 -1 "/></g></g><g style="fill:#000000;fill-opacity:1;"><g transform="translate(225.741372, 282.799228)"><path style="stroke:none" d="M 5.328125 -7.515625 L 3.171875 -7.515625 L 3.171875 0 L 1.75 0 L 1.75 -7.515625 L 0.234375 -7.515625 L 0.234375 -8.171875 L 1.75 -8.65625 L 1.75 -9.15625 C 1.75 -10.269531 1.992188 -11.066406 2.484375 -11.546875 C 2.972656 -12.035156 3.660156 -12.28125 4.546875 -12.28125 C 4.878906 -12.28125 5.1875 -12.25 5.46875 -12.1875 C 5.757812 -12.132812 6.007812 -12.070312 6.21875 -12 L 5.84375 -10.890625 C 5.675781 -10.941406 5.476562 -10.992188 5.25 -11.046875 C 5.03125 -11.097656 4.800781 -11.125 4.5625 -11.125 C 4.09375 -11.125 3.742188 -10.96875 3.515625 -10.65625 C 3.285156 -10.34375 3.171875 -9.847656 3.171875 -9.171875 L 3.171875 -8.609375 L 5.328125 -8.609375 Z M 5.328125 -7.515625 "/></g></g><g style="fill:#000000;fill-opacity:1;"><g transform="translate(232.419363, 282.799228)"><path style="stroke:none" d="M 8.84375 -4.328125 C 8.84375 -2.898438 8.484375 -1.796875 7.765625 -1.015625 C 7.046875 -0.234375 6.066406 0.15625 4.828125 0.15625 C 4.066406 0.15625 3.390625 -0.015625 2.796875 -0.359375 C 2.203125 -0.710938 1.734375 -1.222656 1.390625 -1.890625 C 1.054688 -2.554688 0.890625 -3.367188 0.890625 -4.328125 C 0.890625 -5.742188 1.242188 -6.835938 1.953125 -7.609375 C 2.660156 -8.378906 3.640625 -8.765625 4.890625 -8.765625 C 5.660156 -8.765625 6.34375 -8.585938 6.9375 -8.234375 C 7.539062 -7.890625 8.007812 -7.390625 8.34375 -6.734375 C 8.675781 -6.078125 8.84375 -5.273438 8.84375 -4.328125 Z M 2.34375 -4.328125 C 2.34375 -3.304688 2.539062 -2.5 2.9375 -1.90625 C 3.34375 -1.3125 3.984375 -1.015625 4.859375 -1.015625 C 5.734375 -1.015625 6.375 -1.3125 6.78125 -1.90625 C 7.1875 -2.5 7.390625 -3.304688 7.390625 -4.328125 C 7.390625 -5.335938 7.1875 -6.128906 6.78125 -6.703125 C 6.375 -7.285156 5.726562 -7.578125 4.84375 -7.578125 C 3.96875 -7.578125 3.332031 -7.285156 2.9375 -6.703125 C 2.539062 -6.128906 2.34375 -5.335938 2.34375 -4.328125 Z M 2.34375 -4.328125 "/></g></g><g style="fill:#000000;fill-opacity:1;"><g transform="translate(243.286694, 282.799228)"><path style="stroke:none" d="M 2.78125 0 L 1.359375 0 L 1.359375 -12.203125 L 2.78125 -12.203125 Z M 2.78125 0 "/></g></g><g style="fill:#000000;fill-opacity:1;"><g transform="translate(248.584294, 282.799228)"><path style="stroke:none" d="M 2.09375 -11.84375 C 2.300781 -11.84375 2.488281 -11.769531 2.65625 -11.625 C 2.820312 -11.476562 2.90625 -11.25 2.90625 -10.9375 C 2.90625 -10.625 2.820312 -10.394531 2.65625 -10.25 C 2.488281 -10.101562 2.300781 -10.03125 2.09375 -10.03125 C 1.851562 -10.03125 1.648438 -10.101562 1.484375 -10.25 C 1.328125 -10.394531 1.25 -10.625 1.25 -10.9375 C 1.25 -11.25 1.328125 -11.476562 1.484375 -11.625 C 1.648438 -11.769531 1.851562 -11.84375 2.09375 -11.84375 Z M 2.78125 -8.609375 L 2.78125 0 L 1.359375 0 L 1.359375 -8.609375 Z M 2.78125 -8.609375 "/></g></g><g style="fill:#000000;fill-opacity:1;"><g transform="translate(253.881893, 282.799228)"><path style="stroke:none" d="M 8.84375 -4.328125 C 8.84375 -2.898438 8.484375 -1.796875 7.765625 -1.015625 C 7.046875 -0.234375 6.066406 0.15625 4.828125 0.15625 C 4.066406 0.15625 3.390625 -0.015625 2.796875 -0.359375 C 2.203125 -0.710938 1.734375 -1.222656 1.390625 -1.890625 C 1.054688 -2.554688 0.890625 -3.367188 0.890625 -4.328125 C 0.890625 -5.742188 1.242188 -6.835938 1.953125 -7.609375 C 2.660156 -8.378906 3.640625 -8.765625 4.890625 -8.765625 C 5.660156 -8.765625 6.34375 -8.585938 6.9375 -8.234375 C 7.539062 -7.890625 8.007812 -7.390625 8.34375 -6.734375 C 8.675781 -6.078125 8.84375 -5.273438 8.84375 -4.328125 Z M 2.34375 -4.328125 C 2.34375 -3.304688 2.539062 -2.5 2.9375 -1.90625 C 3.34375 -1.3125 3.984375 -1.015625 4.859375 -1.015625 C 5.734375 -1.015625 6.375 -1.3125 6.78125 -1.90625 C 7.1875 -2.5 7.390625 -3.304688 7.390625 -4.328125 C 7.390625 -5.335938 7.1875 -6.128906 6.78125 -6.703125 C 6.375 -7.285156 5.726562 -7.578125 4.84375 -7.578125 C 3.96875 -7.578125 3.332031 -7.285156 2.9375 -6.703125 C 2.539062 -6.128906 2.34375 -5.335938 2.34375 -4.328125 Z M 2.34375 -4.328125 "/></g></g><g style="fill:#000000;fill-opacity:1;"><g transform="translate(47.184796, 255.667294)"><path style="stroke:none" d="M 17.09375 0 L 3.703125 0 C 3.179688 0 2.921875 -0.257812 2.921875 -0.78125 L 2.921875 -28.671875 C 2.921875 -29.203125 3.179688 -29.46875 3.703125 -29.46875 L 7.515625 -29.46875 C 8.046875 -29.46875 8.3125 -29.203125 8.3125 -28.671875 L 8.3125 -4.78125 L 17.09375 -4.78125 C 17.613281 -4.78125 17.875 -4.515625 17.875 -3.984375 L 17.875 -0.78125 C 17.875 -0.257812 17.613281 0 17.09375 0 Z M 17.09375 0 "/></g></g><g style="fill:#000000;fill-opacity:1;"><g transform="translate(64.083049, 255.667294)"><path style="stroke:none" d="M 14.0625 0.6875 C 12.539062 0.6875 11.09375 0.488281 9.71875 0.09375 C 8.351562 -0.289062 7.140625 -0.894531 6.078125 -1.71875 C 5.015625 -2.550781 4.179688 -3.617188 3.578125 -4.921875 C 2.972656 -6.234375 2.671875 -7.796875 2.671875 -9.609375 L 2.671875 -28.671875 C 2.671875 -29.203125 2.929688 -29.46875 3.453125 -29.46875 L 7.390625 -29.46875 C 7.910156 -29.46875 8.171875 -29.203125 8.171875 -28.671875 L 8.171875 -10.640625 C 8.171875 -9.085938 8.40625 -7.84375 8.875 -6.90625 C 9.351562 -5.96875 10.03125 -5.296875 10.90625 -4.890625 C 11.789062 -4.484375 12.84375 -4.28125 14.0625 -4.28125 C 15.300781 -4.28125 16.359375 -4.484375 17.234375 -4.890625 C 18.117188 -5.296875 18.796875 -5.96875 19.265625 -6.90625 C 19.734375 -7.84375 19.96875 -9.085938 19.96875 -10.640625 L 19.96875 -28.671875 C 19.96875 -29.203125 20.226562 -29.46875 20.75 -29.46875 L 24.6875 -29.46875 C 25.207031 -29.46875 25.46875 -29.203125 25.46875 -28.671875 L 25.46875 -9.609375 C 25.46875 -7.796875 25.171875 -6.234375 24.578125 -4.921875 C 23.984375 -3.617188 23.160156 -2.550781 22.109375 -1.71875 C 21.066406 -0.894531 19.851562 -0.289062 18.46875 0.09375 C 17.09375 0.488281 15.625 0.6875 14.0625 0.6875 Z M 14.0625 0.6875 "/></g></g><g style="fill:#000000;fill-opacity:1;"><g transform="translate(90.609812, 255.667294)"><path style="stroke:none" d="M 7.515625 0 L 3.703125 0 C 3.179688 0 2.921875 -0.257812 2.921875 -0.78125 L 2.921875 -28.671875 C 2.921875 -29.203125 3.179688 -29.46875 3.703125 -29.46875 L 7.515625 -29.46875 C 8.046875 -29.46875 8.3125 -29.203125 8.3125 -28.671875 L 8.3125 -0.78125 C 8.3125 -0.257812 8.046875 0 7.515625 0 Z M 7.515625 0 "/></g></g><g style="fill:#000000;fill-opacity:1;"><g transform="translate(100.219552, 255.667294)"><path style="stroke:none" d="M 11.515625 0.6875 C 10.097656 0.6875 8.644531 0.546875 7.15625 0.265625 C 5.664062 -0.015625 4.015625 -0.503906 2.203125 -1.203125 C 1.722656 -1.429688 1.578125 -1.785156 1.765625 -2.265625 L 2.953125 -5.453125 C 3.140625 -5.910156 3.484375 -6.03125 3.984375 -5.8125 C 5.410156 -5.144531 6.742188 -4.675781 7.984375 -4.40625 C 9.234375 -4.144531 10.363281 -4.015625 11.375 -4.015625 C 12.78125 -4.015625 13.910156 -4.285156 14.765625 -4.828125 C 15.617188 -5.378906 16.046875 -6.195312 16.046875 -7.28125 C 16.046875 -7.9375 15.851562 -8.523438 15.46875 -9.046875 C 15.082031 -9.566406 14.554688 -10.050781 13.890625 -10.5 C 13.222656 -10.957031 12.46875 -11.40625 11.625 -11.84375 C 10.789062 -12.28125 9.921875 -12.742188 9.015625 -13.234375 C 8.117188 -13.722656 7.257812 -14.242188 6.4375 -14.796875 C 5.613281 -15.347656 4.867188 -15.96875 4.203125 -16.65625 C 3.546875 -17.34375 3.023438 -18.132812 2.640625 -19.03125 C 2.265625 -19.9375 2.078125 -20.976562 2.078125 -22.15625 C 2.078125 -23.570312 2.332031 -24.785156 2.84375 -25.796875 C 3.363281 -26.804688 4.066406 -27.628906 4.953125 -28.265625 C 5.847656 -28.910156 6.859375 -29.382812 7.984375 -29.6875 C 9.117188 -30 10.304688 -30.15625 11.546875 -30.15625 C 12.710938 -30.15625 13.984375 -30.015625 15.359375 -29.734375 C 16.734375 -29.453125 18.078125 -29.0625 19.390625 -28.5625 C 19.878906 -28.363281 20.019531 -28.023438 19.8125 -27.546875 L 18.796875 -24.5 C 18.585938 -24.007812 18.25 -23.859375 17.78125 -24.046875 C 16.757812 -24.484375 15.71875 -24.820312 14.65625 -25.0625 C 13.59375 -25.3125 12.585938 -25.4375 11.640625 -25.4375 C 10.890625 -25.4375 10.195312 -25.335938 9.5625 -25.140625 C 8.9375 -24.953125 8.4375 -24.644531 8.0625 -24.21875 C 7.695312 -23.800781 7.515625 -23.238281 7.515625 -22.53125 C 7.515625 -21.894531 7.675781 -21.320312 8 -20.8125 C 8.332031 -20.3125 8.785156 -19.847656 9.359375 -19.421875 C 9.929688 -18.992188 10.585938 -18.582031 11.328125 -18.1875 C 12.078125 -17.789062 12.875 -17.378906 13.71875 -16.953125 C 14.632812 -16.460938 15.550781 -15.941406 16.46875 -15.390625 C 17.394531 -14.835938 18.238281 -14.195312 19 -13.46875 C 19.757812 -12.75 20.367188 -11.90625 20.828125 -10.9375 C 21.285156 -9.976562 21.515625 -8.851562 21.515625 -7.5625 C 21.515625 -6.101562 21.238281 -4.851562 20.6875 -3.8125 C 20.144531 -2.769531 19.398438 -1.914062 18.453125 -1.25 C 17.503906 -0.582031 16.429688 -0.09375 15.234375 0.21875 C 14.046875 0.53125 12.804688 0.6875 11.515625 0.6875 Z M 11.515625 0.6875 "/></g></g><g style="fill:#000000;fill-opacity:1;"><g transform="translate(121.682716, 255.667294)"><path style="stroke:none" d=""/></g></g><g style="fill:#000000;fill-opacity:1;"><g transform="translate(131.848685, 255.667294)"><path style="stroke:none" d="M 11.515625 0.6875 C 10.097656 0.6875 8.644531 0.546875 7.15625 0.265625 C 5.664062 -0.015625 4.015625 -0.503906 2.203125 -1.203125 C 1.722656 -1.429688 1.578125 -1.785156 1.765625 -2.265625 L 2.953125 -5.453125 C 3.140625 -5.910156 3.484375 -6.03125 3.984375 -5.8125 C 5.410156 -5.144531 6.742188 -4.675781 7.984375 -4.40625 C 9.234375 -4.144531 10.363281 -4.015625 11.375 -4.015625 C 12.78125 -4.015625 13.910156 -4.285156 14.765625 -4.828125 C 15.617188 -5.378906 16.046875 -6.195312 16.046875 -7.28125 C 16.046875 -7.9375 15.851562 -8.523438 15.46875 -9.046875 C 15.082031 -9.566406 14.554688 -10.050781 13.890625 -10.5 C 13.222656 -10.957031 12.46875 -11.40625 11.625 -11.84375 C 10.789062 -12.28125 9.921875 -12.742188 9.015625 -13.234375 C 8.117188 -13.722656 7.257812 -14.242188 6.4375 -14.796875 C 5.613281 -15.347656 4.867188 -15.96875 4.203125 -16.65625 C 3.546875 -17.34375 3.023438 -18.132812 2.640625 -19.03125 C 2.265625 -19.9375 2.078125 -20.976562 2.078125 -22.15625 C 2.078125 -23.570312 2.332031 -24.785156 2.84375 -25.796875 C 3.363281 -26.804688 4.066406 -27.628906 4.953125 -28.265625 C 5.847656 -28.910156 6.859375 -29.382812 7.984375 -29.6875 C 9.117188 -30 10.304688 -30.15625 11.546875 -30.15625 C 12.710938 -30.15625 13.984375 -30.015625 15.359375 -29.734375 C 16.734375 -29.453125 18.078125 -29.0625 19.390625 -28.5625 C 19.878906 -28.363281 20.019531 -28.023438 19.8125 -27.546875 L 18.796875 -24.5 C 18.585938 -24.007812 18.25 -23.859375 17.78125 -24.046875 C 16.757812 -24.484375 15.71875 -24.820312 14.65625 -25.0625 C 13.59375 -25.3125 12.585938 -25.4375 11.640625 -25.4375 C 10.890625 -25.4375 10.195312 -25.335938 9.5625 -25.140625 C 8.9375 -24.953125 8.4375 -24.644531 8.0625 -24.21875 C 7.695312 -23.800781 7.515625 -23.238281 7.515625 -22.53125 C 7.515625 -21.894531 7.675781 -21.320312 8 -20.8125 C 8.332031 -20.3125 8.785156 -19.847656 9.359375 -19.421875 C 9.929688 -18.992188 10.585938 -18.582031 11.328125 -18.1875 C 12.078125 -17.789062 12.875 -17.378906 13.71875 -16.953125 C 14.632812 -16.460938 15.550781 -15.941406 16.46875 -15.390625 C 17.394531 -14.835938 18.238281 -14.195312 19 -13.46875 C 19.757812 -12.75 20.367188 -11.90625 20.828125 -10.9375 C 21.285156 -9.976562 21.515625 -8.851562 21.515625 -7.5625 C 21.515625 -6.101562 21.238281 -4.851562 20.6875 -3.8125 C 20.144531 -2.769531 19.398438 -1.914062 18.453125 -1.25 C 17.503906 -0.582031 16.429688 -0.09375 15.234375 0.21875 C 14.046875 0.53125 12.804688 0.6875 11.515625 0.6875 Z M 11.515625 0.6875 "/></g></g><g style="fill:#000000;fill-opacity:1;"><g transform="translate(153.31185, 255.667294)"><path style="stroke:none" d="M 7.515625 0 L 3.703125 0 C 3.179688 0 2.921875 -0.257812 2.921875 -0.78125 L 2.921875 -28.671875 C 2.921875 -29.203125 3.179688 -29.46875 3.703125 -29.46875 L 7.515625 -29.46875 C 8.046875 -29.46875 8.3125 -29.203125 8.3125 -28.671875 L 8.3125 -14.390625 L 21.0625 -14.390625 L 21.0625 -28.671875 C 21.0625 -29.203125 21.320312 -29.46875 21.84375 -29.46875 L 25.65625 -29.46875 C 26.1875 -29.46875 26.453125 -29.203125 26.453125 -28.671875 L 26.453125 -0.78125 C 26.453125 -0.257812 26.1875 0 25.65625 0 L 21.84375 0 C 21.320312 0 21.0625 -0.257812 21.0625 -0.78125 L 21.0625 -9.609375 L 8.3125 -9.609375 L 8.3125 -0.78125 C 8.3125 -0.257812 8.046875 0 7.515625 0 Z M 7.515625 0 "/></g></g><g style="fill:#000000;fill-opacity:1;"><g transform="translate(181.085331, 255.667294)"><path style="stroke:none" d="M 19.578125 0 L 3.703125 0 C 3.179688 0 2.921875 -0.257812 2.921875 -0.78125 L 2.921875 -28.671875 C 2.921875 -29.203125 3.179688 -29.46875 3.703125 -29.46875 L 19.578125 -29.46875 C 20.109375 -29.46875 20.375 -29.203125 20.375 -28.671875 L 20.375 -25.46875 C 20.375 -24.945312 20.109375 -24.6875 19.578125 -24.6875 L 8.3125 -24.6875 L 8.3125 -14.265625 L 18.046875 -14.265625 C 18.566406 -14.265625 18.828125 -14.003906 18.828125 -13.484375 L 18.828125 -10.484375 C 18.828125 -9.960938 18.566406 -9.703125 18.046875 -9.703125 L 8.3125 -9.703125 L 8.3125 -4.78125 L 19.578125 -4.78125 C 20.109375 -4.78125 20.375 -4.515625 20.375 -3.984375 L 20.375 -0.78125 C 20.375 -0.257812 20.109375 0 19.578125 0 Z M 19.578125 0 "/></g></g><g style="fill:#000000;fill-opacity:1;"><g transform="translate(201.666201, 255.667294)"><path style="stroke:none" d="M 19.5 -10.609375 L 24.59375 -0.9375 C 24.726562 -0.65625 24.738281 -0.425781 24.625 -0.25 C 24.507812 -0.0820312 24.304688 0 24.015625 0 L 19.625 0 C 19.207031 0 18.90625 -0.195312 18.71875 -0.59375 L 14.21875 -9.546875 L 8.3125 -9.546875 L 8.3125 -0.78125 C 8.3125 -0.257812 8.046875 0 7.515625 0 L 3.703125 0 C 3.179688 0 2.921875 -0.257812 2.921875 -0.78125 L 2.921875 -28.671875 C 2.921875 -29.203125 3.179688 -29.46875 3.703125 -29.46875 L 13.25 -29.46875 C 15.28125 -29.46875 17.003906 -29.234375 18.421875 -28.765625 C 19.847656 -28.296875 21 -27.628906 21.875 -26.765625 C 22.757812 -25.898438 23.40625 -24.863281 23.8125 -23.65625 C 24.21875 -22.445312 24.421875 -21.101562 24.421875 -19.625 C 24.421875 -17.40625 24.003906 -15.535156 23.171875 -14.015625 C 22.335938 -12.492188 21.113281 -11.359375 19.5 -10.609375 Z M 8.3125 -24.6875 L 8.3125 -14.3125 L 12.5625 -14.3125 C 12.9375 -14.3125 13.394531 -14.328125 13.9375 -14.359375 C 14.488281 -14.398438 15.0625 -14.5 15.65625 -14.65625 C 16.25 -14.820312 16.800781 -15.09375 17.3125 -15.46875 C 17.832031 -15.84375 18.253906 -16.359375 18.578125 -17.015625 C 18.898438 -17.679688 19.0625 -18.535156 19.0625 -19.578125 C 19.0625 -20.585938 18.90625 -21.414062 18.59375 -22.0625 C 18.289062 -22.707031 17.882812 -23.207031 17.375 -23.5625 C 16.875 -23.925781 16.332031 -24.1875 15.75 -24.34375 C 15.175781 -24.507812 14.609375 -24.609375 14.046875 -24.640625 C 13.484375 -24.671875 12.988281 -24.6875 12.5625 -24.6875 Z M 8.3125 -24.6875 "/></g></g><g style="fill:#000000;fill-opacity:1;"><g transform="translate(226.735261, 255.667294)"><path style="stroke:none" d="M 15.0625 -29.46875 L 27.765625 -0.921875 C 27.890625 -0.640625 27.894531 -0.414062 27.78125 -0.25 C 27.675781 -0.0820312 27.472656 0 27.171875 0 L 22.953125 0 C 22.503906 0 22.207031 -0.203125 22.0625 -0.609375 L 20.390625 -4.75 L 8.015625 -4.75 L 6.34375 -0.609375 C 6.195312 -0.203125 5.898438 0 5.453125 0 L 1.203125 0 C 0.921875 0 0.722656 -0.0820312 0.609375 -0.25 C 0.492188 -0.414062 0.503906 -0.640625 0.640625 -0.921875 L 13.328125 -29.46875 C 13.554688 -29.957031 13.847656 -30.203125 14.203125 -30.203125 C 14.554688 -30.203125 14.84375 -29.957031 15.0625 -29.46875 Z M 14.21875 -20.078125 L 9.765625 -9.078125 L 18.640625 -9.078125 Z M 14.21875 -20.078125 "/></g></g><g style="fill:#000000;fill-opacity:1;"><g transform="translate(253.549728, 255.667294)"><path style="stroke:none" d="M 13.5625 0 L 3.703125 0 C 3.179688 0 2.921875 -0.257812 2.921875 -0.78125 L 2.921875 -28.671875 C 2.921875 -29.203125 3.179688 -29.46875 3.703125 -29.46875 L 13.0625 -29.46875 C 14.851562 -29.46875 16.359375 -29.269531 17.578125 -28.875 C 18.796875 -28.488281 19.773438 -27.945312 20.515625 -27.25 C 21.265625 -26.550781 21.800781 -25.738281 22.125 -24.8125 C 22.457031 -23.882812 22.625 -22.882812 22.625 -21.8125 C 22.625 -20.375 22.3125 -19.070312 21.6875 -17.90625 C 21.070312 -16.75 20.160156 -15.8125 18.953125 -15.09375 C 20.066406 -14.695312 20.96875 -14.148438 21.65625 -13.453125 C 22.34375 -12.753906 22.84375 -11.96875 23.15625 -11.09375 C 23.46875 -10.21875 23.625 -9.3125 23.625 -8.375 C 23.625 -7.5625 23.53125 -6.75 23.34375 -5.9375 C 23.15625 -5.125 22.832031 -4.363281 22.375 -3.65625 C 21.914062 -2.945312 21.300781 -2.316406 20.53125 -1.765625 C 19.769531 -1.210938 18.816406 -0.78125 17.671875 -0.46875 C 16.523438 -0.15625 15.15625 0 13.5625 0 Z M 8.3125 -24.6875 L 8.3125 -17.1875 L 13.578125 -17.1875 C 14.640625 -17.1875 15.46875 -17.347656 16.0625 -17.671875 C 16.65625 -17.992188 17.078125 -18.445312 17.328125 -19.03125 C 17.578125 -19.613281 17.703125 -20.285156 17.703125 -21.046875 C 17.703125 -21.753906 17.566406 -22.378906 17.296875 -22.921875 C 17.023438 -23.472656 16.546875 -23.90625 15.859375 -24.21875 C 15.179688 -24.53125 14.210938 -24.6875 12.953125 -24.6875 Z M 8.3125 -12.90625 L 8.3125 -4.78125 L 13.40625 -4.78125 C 14.414062 -4.78125 15.238281 -4.894531 15.875 -5.125 C 16.507812 -5.351562 16.992188 -5.660156 17.328125 -6.046875 C 17.671875 -6.441406 17.90625 -6.882812 18.03125 -7.375 C 18.15625 -7.875 18.21875 -8.394531 18.21875 -8.9375 C 18.21875 -9.707031 18.070312 -10.390625 17.78125 -10.984375 C 17.5 -11.578125 17.023438 -12.046875 16.359375 -12.390625 C 15.691406 -12.734375 14.789062 -12.90625 13.65625 -12.90625 Z M 8.3125 -12.90625 "/></g></g><g style="fill:#000000;fill-opacity:1;"><g transform="translate(277.48715, 255.667294)"><path style="stroke:none" d=""/></g></g><g style="fill:#000000;fill-opacity:1;"><g transform="translate(287.653119, 255.667294)"><path style="stroke:none" d="M 6.09375 0.6875 C 5.46875 0.6875 4.769531 0.644531 4 0.5625 C 3.226562 0.488281 2.335938 0.304688 1.328125 0.015625 C 0.828125 -0.140625 0.628906 -0.457031 0.734375 -0.9375 L 1.359375 -4.046875 C 1.460938 -4.566406 1.789062 -4.753906 2.34375 -4.609375 C 2.875 -4.441406 3.316406 -4.332031 3.671875 -4.28125 C 4.035156 -4.238281 4.335938 -4.21875 4.578125 -4.21875 C 5.503906 -4.21875 6.113281 -4.492188 6.40625 -5.046875 C 6.707031 -5.609375 6.859375 -6.4375 6.859375 -7.53125 L 6.859375 -28.671875 C 6.859375 -29.203125 7.125 -29.46875 7.65625 -29.46875 L 11.453125 -29.46875 C 11.972656 -29.46875 12.234375 -29.203125 12.234375 -28.671875 L 12.234375 -7.703125 C 12.234375 -6.398438 12.140625 -5.226562 11.953125 -4.1875 C 11.773438 -3.15625 11.457031 -2.273438 11 -1.546875 C 10.539062 -0.816406 9.910156 -0.265625 9.109375 0.109375 C 8.316406 0.492188 7.3125 0.6875 6.09375 0.6875 Z M 6.09375 0.6875 "/></g></g><g style="fill:#000000;fill-opacity:1;"><g transform="translate(301.118099, 255.667294)"><path style="stroke:none" d="M 19.5 -10.609375 L 24.59375 -0.9375 C 24.726562 -0.65625 24.738281 -0.425781 24.625 -0.25 C 24.507812 -0.0820312 24.304688 0 24.015625 0 L 19.625 0 C 19.207031 0 18.90625 -0.195312 18.71875 -0.59375 L 14.21875 -9.546875 L 8.3125 -9.546875 L 8.3125 -0.78125 C 8.3125 -0.257812 8.046875 0 7.515625 0 L 3.703125 0 C 3.179688 0 2.921875 -0.257812 2.921875 -0.78125 L 2.921875 -28.671875 C 2.921875 -29.203125 3.179688 -29.46875 3.703125 -29.46875 L 13.25 -29.46875 C 15.28125 -29.46875 17.003906 -29.234375 18.421875 -28.765625 C 19.847656 -28.296875 21 -27.628906 21.875 -26.765625 C 22.757812 -25.898438 23.40625 -24.863281 23.8125 -23.65625 C 24.21875 -22.445312 24.421875 -21.101562 24.421875 -19.625 C 24.421875 -17.40625 24.003906 -15.535156 23.171875 -14.015625 C 22.335938 -12.492188 21.113281 -11.359375 19.5 -10.609375 Z M 8.3125 -24.6875 L 8.3125 -14.3125 L 12.5625 -14.3125 C 12.9375 -14.3125 13.394531 -14.328125 13.9375 -14.359375 C 14.488281 -14.398438 15.0625 -14.5 15.65625 -14.65625 C 16.25 -14.820312 16.800781 -15.09375 17.3125 -15.46875 C 17.832031 -15.84375 18.253906 -16.359375 18.578125 -17.015625 C 18.898438 -17.679688 19.0625 -18.535156 19.0625 -19.578125 C 19.0625 -20.585938 18.90625 -21.414062 18.59375 -22.0625 C 18.289062 -22.707031 17.882812 -23.207031 17.375 -23.5625 C 16.875 -23.925781 16.332031 -24.1875 15.75 -24.34375 C 15.175781 -24.507812 14.609375 -24.609375 14.046875 -24.640625 C 13.484375 -24.671875 12.988281 -24.6875 12.5625 -24.6875 Z M 8.3125 -24.6875 "/></g></g><g style="fill:#ed0d0d;fill-opacity:1;"><g transform="translate(152.683777, 304.386494)"><path style="stroke:none" d="M 14.078125 -10.96875 L 11.171875 0 L 9.765625 0 L 7.640625 -7.1875 C 7.546875 -7.476562 7.457031 -7.773438 7.375 -8.078125 C 7.300781 -8.378906 7.234375 -8.644531 7.171875 -8.875 C 7.117188 -9.101562 7.085938 -9.265625 7.078125 -9.359375 C 7.066406 -9.222656 7.007812 -8.9375 6.90625 -8.5 C 6.8125 -8.0625 6.695312 -7.609375 6.5625 -7.140625 L 4.484375 0 L 3.09375 0 L 0.1875 -10.96875 L 1.625 -10.96875 L 3.328125 -4.265625 C 3.453125 -3.796875 3.554688 -3.34375 3.640625 -2.90625 C 3.734375 -2.46875 3.804688 -2.050781 3.859375 -1.65625 C 3.910156 -2.0625 3.984375 -2.5 4.078125 -2.96875 C 4.179688 -3.4375 4.300781 -3.894531 4.4375 -4.34375 L 6.375 -10.96875 L 7.796875 -10.96875 L 9.8125 -4.296875 C 9.957031 -3.828125 10.082031 -3.359375 10.1875 -2.890625 C 10.289062 -2.421875 10.363281 -2.007812 10.40625 -1.65625 C 10.445312 -2.039062 10.515625 -2.453125 10.609375 -2.890625 C 10.710938 -3.335938 10.828125 -3.800781 10.953125 -4.28125 L 12.640625 -10.96875 Z M 14.078125 -10.96875 "/></g></g><g style="fill:#ed0d0d;fill-opacity:1;"><g transform="translate(168.074252, 304.386494)"><path style="stroke:none" d="M 14.078125 -10.96875 L 11.171875 0 L 9.765625 0 L 7.640625 -7.1875 C 7.546875 -7.476562 7.457031 -7.773438 7.375 -8.078125 C 7.300781 -8.378906 7.234375 -8.644531 7.171875 -8.875 C 7.117188 -9.101562 7.085938 -9.265625 7.078125 -9.359375 C 7.066406 -9.222656 7.007812 -8.9375 6.90625 -8.5 C 6.8125 -8.0625 6.695312 -7.609375 6.5625 -7.140625 L 4.484375 0 L 3.09375 0 L 0.1875 -10.96875 L 1.625 -10.96875 L 3.328125 -4.265625 C 3.453125 -3.796875 3.554688 -3.34375 3.640625 -2.90625 C 3.734375 -2.46875 3.804688 -2.050781 3.859375 -1.65625 C 3.910156 -2.0625 3.984375 -2.5 4.078125 -2.96875 C 4.179688 -3.4375 4.300781 -3.894531 4.4375 -4.34375 L 6.375 -10.96875 L 7.796875 -10.96875 L 9.8125 -4.296875 C 9.957031 -3.828125 10.082031 -3.359375 10.1875 -2.890625 C 10.289062 -2.421875 10.363281 -2.007812 10.40625 -1.65625 C 10.445312 -2.039062 10.515625 -2.453125 10.609375 -2.890625 C 10.710938 -3.335938 10.828125 -3.800781 10.953125 -4.28125 L 12.640625 -10.96875 Z M 14.078125 -10.96875 "/></g></g><g style="fill:#ed0d0d;fill-opacity:1;"><g transform="translate(183.464727, 304.386494)"><path style="stroke:none" d="M 14.078125 -10.96875 L 11.171875 0 L 9.765625 0 L 7.640625 -7.1875 C 7.546875 -7.476562 7.457031 -7.773438 7.375 -8.078125 C 7.300781 -8.378906 7.234375 -8.644531 7.171875 -8.875 C 7.117188 -9.101562 7.085938 -9.265625 7.078125 -9.359375 C 7.066406 -9.222656 7.007812 -8.9375 6.90625 -8.5 C 6.8125 -8.0625 6.695312 -7.609375 6.5625 -7.140625 L 4.484375 0 L 3.09375 0 L 0.1875 -10.96875 L 1.625 -10.96875 L 3.328125 -4.265625 C 3.453125 -3.796875 3.554688 -3.34375 3.640625 -2.90625 C 3.734375 -2.46875 3.804688 -2.050781 3.859375 -1.65625 C 3.910156 -2.0625 3.984375 -2.5 4.078125 -2.96875 C 4.179688 -3.4375 4.300781 -3.894531 4.4375 -4.34375 L 6.375 -10.96875 L 7.796875 -10.96875 L 9.8125 -4.296875 C 9.957031 -3.828125 10.082031 -3.359375 10.1875 -2.890625 C 10.289062 -2.421875 10.363281 -2.007812 10.40625 -1.65625 C 10.445312 -2.039062 10.515625 -2.453125 10.609375 -2.890625 C 10.710938 -3.335938 10.828125 -3.800781 10.953125 -4.28125 L 12.640625 -10.96875 Z M 14.078125 -10.96875 "/></g></g><g style="fill:#ed0d0d;fill-opacity:1;"><g transform="translate(198.855201, 304.386494)"><path style="stroke:none" d="M 0.609375 -0.453125 C 0.609375 -0.585938 0.660156 -0.703125 0.765625 -0.796875 C 0.867188 -0.898438 0.992188 -0.953125 1.140625 -0.953125 C 1.285156 -0.953125 1.40625 -0.898438 1.5 -0.796875 C 1.59375 -0.703125 1.640625 -0.585938 1.640625 -0.453125 C 1.640625 -0.304688 1.59375 -0.179688 1.5 -0.078125 C 1.40625 0.0234375 1.285156 0.078125 1.140625 0.078125 C 0.992188 0.078125 0.867188 0.0234375 0.765625 -0.078125 C 0.660156 -0.179688 0.609375 -0.304688 0.609375 -0.453125 Z M 0.609375 -0.453125 "/></g></g><g style="fill:#ed0d0d;fill-opacity:1;"><g transform="translate(202.219238, 304.386494)"><path style="stroke:none" d="M 0.609375 -0.453125 C 0.609375 -0.585938 0.660156 -0.703125 0.765625 -0.796875 C 0.867188 -0.898438 0.992188 -0.953125 1.140625 -0.953125 C 1.285156 -0.953125 1.40625 -0.898438 1.5 -0.796875 C 1.59375 -0.703125 1.640625 -0.585938 1.640625 -0.453125 C 1.640625 -0.304688 1.59375 -0.179688 1.5 -0.078125 C 1.40625 0.0234375 1.285156 0.078125 1.140625 0.078125 C 0.992188 0.078125 0.867188 0.0234375 0.765625 -0.078125 C 0.660156 -0.179688 0.609375 -0.304688 0.609375 -0.453125 Z M 0.609375 -0.453125 "/></g></g><g style="fill:#ed0d0d;fill-opacity:1;"><g transform="translate(205.583275, 304.386494)"><path style="stroke:none" d="M 0.609375 -0.453125 C 0.609375 -0.585938 0.660156 -0.703125 0.765625 -0.796875 C 0.867188 -0.898438 0.992188 -0.953125 1.140625 -0.953125 C 1.285156 -0.953125 1.40625 -0.898438 1.5 -0.796875 C 1.59375 -0.703125 1.640625 -0.585938 1.640625 -0.453125 C 1.640625 -0.304688 1.59375 -0.179688 1.5 -0.078125 C 1.40625 0.0234375 1.285156 0.078125 1.140625 0.078125 C 0.992188 0.078125 0.867188 0.0234375 0.765625 -0.078125 C 0.660156 -0.179688 0.609375 -0.304688 0.609375 -0.453125 Z M 0.609375 -0.453125 "/></g></g><g style="fill:#ed0d0d;fill-opacity:1;"><g transform="translate(208.947312, 304.386494)"><path style="stroke:none" d="M 0.609375 -0.453125 C 0.609375 -0.585938 0.660156 -0.703125 0.765625 -0.796875 C 0.867188 -0.898438 0.992188 -0.953125 1.140625 -0.953125 C 1.285156 -0.953125 1.40625 -0.898438 1.5 -0.796875 C 1.59375 -0.703125 1.640625 -0.585938 1.640625 -0.453125 C 1.640625 -0.304688 1.59375 -0.179688 1.5 -0.078125 C 1.40625 0.0234375 1.285156 0.078125 1.140625 0.078125 C 0.992188 0.078125 0.867188 0.0234375 0.765625 -0.078125 C 0.660156 -0.179688 0.609375 -0.304688 0.609375 -0.453125 Z M 0.609375 -0.453125 "/></g></g><g style="fill:#ed0d0d;fill-opacity:1;"><g transform="translate(212.311349, 304.386494)"><path style="stroke:none" d="M 0.609375 -0.453125 C 0.609375 -0.585938 0.660156 -0.703125 0.765625 -0.796875 C 0.867188 -0.898438 0.992188 -0.953125 1.140625 -0.953125 C 1.285156 -0.953125 1.40625 -0.898438 1.5 -0.796875 C 1.59375 -0.703125 1.640625 -0.585938 1.640625 -0.453125 C 1.640625 -0.304688 1.59375 -0.179688 1.5 -0.078125 C 1.40625 0.0234375 1.285156 0.078125 1.140625 0.078125 C 0.992188 0.078125 0.867188 0.0234375 0.765625 -0.078125 C 0.660156 -0.179688 0.609375 -0.304688 0.609375 -0.453125 Z M 0.609375 -0.453125 "/></g></g><g style="fill:#ed0d0d;fill-opacity:1;"><g transform="translate(215.675386, 304.386494)"><path style="stroke:none" d="M 0.609375 -0.453125 C 0.609375 -0.585938 0.660156 -0.703125 0.765625 -0.796875 C 0.867188 -0.898438 0.992188 -0.953125 1.140625 -0.953125 C 1.285156 -0.953125 1.40625 -0.898438 1.5 -0.796875 C 1.59375 -0.703125 1.640625 -0.585938 1.640625 -0.453125 C 1.640625 -0.304688 1.59375 -0.179688 1.5 -0.078125 C 1.40625 0.0234375 1.285156 0.078125 1.140625 0.078125 C 0.992188 0.078125 0.867188 0.0234375 0.765625 -0.078125 C 0.660156 -0.179688 0.609375 -0.304688 0.609375 -0.453125 Z M 0.609375 -0.453125 "/></g></g><g style="fill:#ed0d0d;fill-opacity:1;"><g transform="translate(219.039423, 304.386494)"><g transform="matrix(1,0,0,1,-1,-1)"/></g></g></g></svg>